<svg id="visual" viewBox="0 0 960 540" width="960" height="540" xmlns="http://www.w3.org/2000/svg" xmlns:xlink="http://www.w3.org/1999/xlink" version="1.1"><path d="M0 228L8 219.3C16 210.7 32 193.3 48 187C64 180.7 80 185.3 96 197.5C112 209.7 128 229.3 144 207.5C160 185.7 176 122.3 192 99.3C208 76.3 224 93.7 240 104.8C256 116 272 121 288 140.5C304 160 320 194 336 210.3C352 226.7 368 225.3 384 195.7C400 166 416 108 432 97.8C448 87.7 464 125.3 480 129.5C496 133.7 512 104.3 528 115.3C544 126.3 560 177.7 576 198C592 218.3 608 207.7 624 194.8C640 182 656 167 672 174.8C688 182.7 704 213.3 720 213.3C736 213.3 752 182.7 768 167.2C784 151.7 800 151.3 816 151C832 150.7 848 150.3 864 136.5C880 122.7 896 95.3 912 108.7C928 122 944 176 952 203L960 230L960 0L952 0C944 0 928 0 912 0C896 0 880 0 864 0C848 0 832 0 816 0C800 0 784 0 768 0C752 0 736 0 720 0C704 0 688 0 672 0C656 0 640 0 624 0C608 0 592 0 576 0C560 0 544 0 528 0C512 0 496 0 480 0C464 0 448 0 432 0C416 0 400 0 384 0C368 0 352 0 336 0C320 0 304 0 288 0C272 0 256 0 240 0C224 0 208 0 192 0C176 0 160 0 144 0C128 0 112 0 96 0C80 0 64 0 48 0C32 0 16 0 8 0L0 0Z" fill="#fad1d1" stroke-linecap="round" stroke-linejoin="miter"></path></svg>